<?xml version="1.0" encoding="utf-8"?>
<!-- Generator: Adobe Illustrator 18.1.0, SVG Export Plug-In . SVG Version: 6.00 Build 0)  -->
<svg version="1.1" xmlns="http://www.w3.org/2000/svg" xmlns:xlink="http://www.w3.org/1999/xlink" x="0px" y="0px" width="54px"
	 height="54px" viewBox="0 0 54 54" enable-background="new 0 0 54 54" xml:space="preserve">
<g id="Layer_6">
</g>
<g id="Icon">
	<g>
		<g>
			<path fill-rule="evenodd" clip-rule="evenodd" d="M40.393,17.604H27.737c-1.74-0.006-2.135-1.006-2.404-1.96
				c-0.27-0.958-0.812-1.808-2.436-1.808c-4.356,0-4.089,0-4.652,0c-1.623,0-2.563,0.85-2.834,1.808
				c-0.236,0.832-0.565,1.773-1.801,1.957h-0.003c-0.689,0-1.247,0.558-1.247,1.247V37.38c0,0.689,0.558,1.247,1.247,1.247h26.785
				c0.688,0,1.247-0.558,1.247-1.247V18.851C41.64,18.161,41.081,17.604,40.393,17.604z M33.756,29.781h-5.252v5.247h-3.008v-5.247
				h-5.275v-3.008h5.275v-5.252h3.008v5.252h5.252V29.781z"/>
		</g>
	</g>
</g>
<g id="Layer_7" display="none">
</g>
<g id="padding" display="none">
	<path display="inline" opacity="0.3" fill-rule="evenodd" clip-rule="evenodd" fill="#E30613" d="M0,0v54h54V0H0z M47,47H7V7h40V47
		z"/>
</g>
<g id="name" display="none">
	<text transform="matrix(1 0 0 1 7.4386 51.1551)" display="inline" fill="#646363" font-family="'UniversLTStd-Cn'" font-size="8">add folder</text>
</g>
</svg>
